<?xml version="1.0" standalone="no"?>
<!DOCTYPE svg PUBLIC "-//W3C//DTD SVG 20010904//EN"
 "http://www.w3.org/TR/2001/REC-SVG-20010904/DTD/svg10.dtd">
<svg version="1.0" xmlns="http://www.w3.org/2000/svg"
 width="852.000000pt" height="852.000000pt" viewBox="0 0 852.000000 852.000000"
 preserveAspectRatio="xMidYMid meet">
<metadata>
Created by potrace 1.14, written by Peter Selinger 2001-2017
</metadata>
<g transform="translate(0.000000,852.000000) scale(0.100000,-0.100000)"
fill="#000000" stroke="none">
<path d="M4029 8416 c-2 -2 -47 -6 -99 -10 -52 -3 -111 -8 -130 -11 -164 -21
-210 -28 -270 -40 -13 -2 -41 -7 -63 -10 -21 -4 -109 -24 -195 -46 -86 -21
-166 -41 -176 -44 -61 -15 -367 -125 -466 -167 -153 -67 -351 -167 -481 -244
-110 -65 -290 -182 -299 -194 -3 -3 -27 -21 -54 -40 -205 -139 -527 -442 -724
-680 -129 -155 -114 -136 -203 -260 -110 -154 -134 -192 -247 -388 -34 -61
-132 -257 -177 -357 -120 -265 -248 -690 -289 -960 -4 -22 -11 -67 -16 -100
-14 -87 -27 -207 -36 -340 -9 -113 -8 -430 0 -555 19 -271 58 -510 126 -774
31 -119 101 -345 125 -401 7 -16 31 -76 54 -133 79 -193 226 -481 312 -610 16
-24 29 -45 29 -47 0 -5 161 -238 169 -245 3 -3 26 -32 50 -64 150 -202 435
-495 641 -661 41 -33 77 -62 80 -66 3 -3 23 -18 45 -34 22 -17 42 -32 45 -35
35 -35 340 -231 475 -305 77 -42 283 -145 290 -145 2 0 35 -14 72 -31 259
-118 666 -237 977 -285 21 -3 47 -7 58 -9 11 -3 46 -7 77 -11 31 -3 65 -8 75
-10 138 -26 705 -25 926 1 253 31 396 58 630 121 591 158 1146 453 1625 863
107 91 351 333 425 422 25 29 57 67 71 84 245 289 495 706 643 1075 66 163
105 270 111 300 1 3 13 43 27 90 68 220 132 545 154 785 23 251 22 674 -1 817
-2 13 -6 50 -9 83 -4 33 -8 71 -11 85 -2 14 -7 41 -9 60 -2 20 -7 47 -10 60
-3 14 -8 41 -11 60 -2 19 -7 46 -10 60 -4 14 -8 34 -10 45 -77 379 -238 810
-432 1155 -95 168 -101 179 -175 290 -240 359 -545 691 -878 954 -47 37 -94
74 -104 83 -44 36 -318 215 -410 267 -308 177 -688 335 -986 411 -36 9 -78 20
-95 25 -16 5 -41 11 -55 14 -14 3 -70 14 -125 25 -118 23 -143 28 -210 37 -27
3 -58 8 -68 10 -10 2 -52 6 -93 9 -42 4 -85 9 -97 12 -24 5 -582 14 -588 9z"/>
</g>
</svg>
